<mxfile host="app.diagrams.net" modified="2023-06-21T08:48:16.895Z" agent="Mozilla/5.0 (Windows NT 10.0; Win64; x64) AppleWebKit/537.36 (KHTML, like Gecko) Chrome/114.0.0.0 Safari/537.36" version="21.3.8" etag="onNAwU9CGEBUN4OCElYp" type="github">
  <diagram name="1 oldal" id="s6w--PPTcIaEuYvj3vef">
    <mxGraphModel>
      <root>
        <mxCell id="0" />
        <mxCell id="1" parent="0" />
      </root>
    </mxGraphModel>
  </diagram>
</mxfile>
